<?xml version="1.0" encoding="UTF-8"?>
<svg id="Ebene_1" xmlns="http://www.w3.org/2000/svg" version="1.1" xmlns:xlink="http://www.w3.org/1999/xlink" viewBox="0 0 595.3 238.9">
  <!-- Generator: Adobe Illustrator 29.3.1, SVG Export Plug-In . SVG Version: 2.1.0 Build 151)  -->
  <defs>
    <style>
      .st0 {
        stroke: #fff;
        stroke-miterlimit: 10;
      }
    </style>
  </defs>
  <g>
    <path class="st0" d="M495,123.6c-25.2,7.7-48.2,32.7-76.8,31.8,30.6,34,66.5-4.6,97.5-14l-2.4-6.7c-3.5-11.8-5.6-17-18.3-11Z"/>
    <path class="st0" d="M582.4,172.6c-2.8-10.3-14.8-9.9-18.2-21-4.2-7.6-22.2-47.6-30-43.5,7,16,15.1,31.6,23.9,46.7,3.7,6.5-3.5,11.5-10,11.7,1.8,1.5,3.2,3.5,4.1,6.1,6.3,9.4,36.5,22.2,30.2,0Z"/>
    <path class="st0" d="M525.3,105.2c-3.2-9.4-7.7-28.6-21.2-24.4-8.2,2.4-13,10.7-21.3,13.1-5.1,1.4-1.8-27.4-12.1-29.5-3-.7-4.2-6.8.2-4.6,9.6,3.8,25.8,8.3,34.6,9.1,13.3-1.3,26.2-19,25.1-33.2-2.1-6.8-1.8-22.5,1-28.2,1.6-4.7-14.8,1.4-15.6,8.4-3.3,8.4-.8,18.1-6.1,25.8-13.6,7.9-30.6-7.4-46.9-11-20.1-5-34.8-1.6-53.3-2.6-62.2,2.4-130.5,36.2-189.8,6.1-13.6-4.5-28.1-.4-41.9-3.1-12.7-2.8-28.5-15.5-38.7-2.6-9.6,1.8-.6-9.6-20.1-16,17.2,23.3,4.9,43.4-23.3,25.6-5.7-6.2-15.9-1.2-19.5-7.1,0-11.1,15.1-6.4,22.6-1.6,6.1,3.5,14.8,11.1,20.8,3.5,2.2-6.7-9.6-12.6-8-20.5-26.3,1-54.7,10.4-71.5,31.8-.5,4.7-.5,9.6-5,12.4-29.1,19-44.4,17.9-6.8,44.7,6.9,3.5,14.7-3.2,22-3.5,0,0,22.8-1.9,42.6,2.4,14.5,4.9,24.1,0,27.5,12.3,15.5,34.4-27.2,22.1-46.1,25.3-15.7-.7-84.5,37.6-41.2,42.8,17.3,4,29.4-6.8,43.7-14.3,23.4-4.8,48-1.4,71.5,2.8.1,0,.3,0,.4,0,1.3-.4,2.7-1.1,3.7-2,2.1-1.9,3.4-4.8,4.6-7.9,1-2.6,2-5.2,3-7.8.4-1.2.9-2.4,1.4-3.6.9-2.2,1.7-4.5,2.5-6.7,2.1-5.7,4.3-11.5,6.8-17.2.6-1.3,1.7-2.1,3.2-2.2,1.4,0,2.7.6,3.5,1.6.7.9.9,2.1.5,3.3-1.2,3.6-2.6,7.1-4,10.5-.6,1.5-1.1,2.9-1.7,4.4-1.7,4.4-3.4,8.8-5.1,13.2-.4.9-.7,1.9-1.1,2.8-1.1,3-2.2,6-3.8,8.9-.9,1.8-2,3.4-3.1,4.7,3.4.6,6.8,1.2,10.1,1.8,9,3.3,9.7-8.3,12.5-13.9.8-2.3,1.2-6,4.6-5,38.3,16.8,67.8,15.2,104.8-3.6,22.9-8.9,46.4-13.9,68.5-25,27.1-12.8,33.4,3.7,48.5,21.4,32.1,16.8,88.3-54.4,107.4-24.7,5.9,13.2,8.1,34.3,23.7,40.1.5-1.2,1.6-2.1,2.9-2.1,2.9,0,6.3.3,8.8-1.1-8.3-17.7-18.9-35-26.1-53.4Z"/>
  </g>
  <path d="M81.7,228.7c-2,0-2.8-.8-2.8-2.6v-34.9h-11.7c-2,0-2.8-.8-2.8-2.6v-8.6c0-1.8.9-2.6,2.8-2.6h41.9c2,0,2.8.8,2.8,2.6v8.6c0,1.8-.9,2.6-2.8,2.6h-11.6v34.9c0,1.8-.9,2.6-2.8,2.6h-12.8Z"/>
  <path d="M122.4,228.7c-2,0-2.8-.8-2.8-2.6v-46c0-1.8.9-2.6,2.8-2.6h36.8c2,0,2.9.8,2.9,2.6v8.3c0,1.8-.9,2.6-2.9,2.6h-21.9v5.5h15.5c2,0,2.9.8,2.9,2.6v7.6c0,1.8-.9,2.6-2.9,2.6h-15.5v6.1h21.9c2,0,2.9.8,2.9,2.6v8.3c0,1.8-.9,2.6-2.9,2.6h-36.8Z"/>
  <path d="M184.8,228.7h-11.6c-2,0-2.9-.8-2.9-2.6v-18.8c0-2.8.9-6.4,3.1-11.4l6.9-16.1c.6-1.6,1.9-2.3,4-2.3h21.3c2.1,0,3.3.7,4,2.3l6.9,16.1c2.1,5,3.1,8.5,3.1,11.4v18.8c0,1.8-.9,2.6-2.9,2.6h-12c-2.1,0-3.1-.8-3.1-2.6v-10h-14v10c0,1.8-.9,2.6-2.9,2.6ZM188.4,203.3h12.4l-3.7-10.8c-.4-.9-.9-1.2-1.5-1.2h-2c-.6,0-1.1.4-1.5,1.2l-3.7,10.8Z"/>
  <path d="M232.2,228.7c-2,0-2.9-.8-2.9-2.6v-46c0-1.8.9-2.6,2.9-2.6h12.8c1.7,0,2.7.6,3.6,2.1l7.1,11.6c.6.9.8,1.2,1.4,1.2h.7c.6,0,.9-.4,1.4-1.2l7.1-11.6c1-1.6,2-2.1,3.6-2.1h12.9c2,0,2.9.8,2.9,2.6v46c0,1.8-.9,2.6-2.9,2.6h-12.2c-2.1,0-2.9-.8-2.9-2.6v-25l-4.7,7.7c-1,1.6-2.1,2.3-4.2,2.3h-3.2c-2.1,0-3.2-.6-4.2-2.3l-4.7-7.7v25c0,1.8-.9,2.6-2.9,2.6h-11.8Z"/>
  <path d="M317.4,228.7c-2,0-2.9-.8-2.9-2.6v-46c0-1.8.9-2.6,2.9-2.6h12.3c2,0,2.9.8,2.9,2.6v15.4h13.2v-15.4c0-1.8.9-2.6,2.9-2.6h12.3c2,0,2.9.8,2.9,2.6v46c0,1.8-.9,2.6-2.9,2.6h-12.3c-2,0-2.9-.8-2.9-2.6v-15.8h-13.2v15.8c0,1.8-.9,2.6-2.9,2.6h-12.3Z"/>
  <path d="M398.5,229.8c-19.8,0-24.7-5.8-24.7-14.5v-24.2c0-8.7,4.8-14.6,24.7-14.6s24.6,5.9,24.6,14.6v24.2c0,8.7-4.8,14.5-24.6,14.5ZM398.5,216.1c5.8,0,6.7-1.4,6.7-3.3v-19.1c0-1.9-.9-3.3-6.7-3.3s-6.7,1.4-6.7,3.3v19.1c0,1.9.9,3.3,6.7,3.3Z"/>
  <path d="M436,228.7c-2,0-2.9-.8-2.9-2.6v-46c0-1.8.9-2.6,2.9-2.6h24.3c14.4,0,18.7,5.6,18.7,13.9v9.1c0,8.2-4.3,13.9-18.7,13.9h-9.1v11.8c0,1.8-.9,2.6-2.9,2.6h-12.3ZM451,201.6h7.1c3.1,0,3.7-1.6,3.7-3.5v-3.8c0-1.9-.6-3.5-3.7-3.5h-7.1v10.7Z"/>
  <path d="M490.1,228.7c-2,0-2.9-.8-2.9-2.6v-46c0-1.8.9-2.6,2.9-2.6h36.8c2,0,2.8.8,2.8,2.6v8.3c0,1.8-.9,2.6-2.8,2.6h-21.9v5.5h15.5c2,0,2.8.8,2.8,2.6v7.6c0,1.8-.9,2.6-2.8,2.6h-15.5v6.1h21.9c2,0,2.8.8,2.8,2.6v8.3c0,1.8-.9,2.6-2.8,2.6h-36.8Z"/>
</svg>